<svg width="24" height="24" viewBox="0 0 24 24" fill="none" xmlns="http://www.w3.org/2000/svg">
<path fill-rule="evenodd" clip-rule="evenodd" d="M4.47961 1.59998H4.39961C4.03321 1.59998 3.71801 1.59998 3.43961 1.66558C3.00863 1.76856 2.61457 1.98885 2.3011 2.30204C1.98763 2.61523 1.76698 3.00909 1.66361 3.43998C1.59961 3.71838 1.59961 4.03198 1.59961 4.39998V8.39998C1.59961 8.76638 1.59961 9.08158 1.66521 9.35998C1.76819 9.79096 1.98848 10.185 2.30167 10.4985C2.61486 10.812 3.00872 11.0326 3.43961 11.136C3.71801 11.2 4.03161 11.2 4.39961 11.2H8.39961C8.76601 11.2 9.08121 11.2 9.35961 11.1344C9.79059 11.0314 10.1846 10.8111 10.4981 10.4979C10.8116 10.1847 11.0322 9.79086 11.1356 9.35998C11.1996 9.08158 11.1996 8.76798 11.1996 8.39998V4.39998C11.1996 4.03358 11.1996 3.71838 11.134 3.43998C11.031 3.00899 10.8107 2.61494 10.4975 2.30146C10.1844 1.98799 9.7905 1.76735 9.35961 1.66398C9.08121 1.59998 8.76761 1.59998 8.39961 1.59998H4.47961ZM3.81241 3.22238C3.88121 3.20638 3.98841 3.19998 4.47961 3.19998H8.31961C8.81241 3.19998 8.91801 3.20478 8.98681 3.22238C9.13054 3.25675 9.26194 3.33026 9.36643 3.43475C9.47093 3.53925 9.54444 3.67065 9.57881 3.81438C9.59481 3.88158 9.59961 3.98718 9.59961 4.47998V8.31998C9.59961 8.81278 9.59481 8.91838 9.57721 8.98718C9.54284 9.1309 9.46933 9.2623 9.36483 9.3668C9.26034 9.47129 9.12894 9.54481 8.98521 9.57918C8.91961 9.59358 8.81401 9.59998 8.31961 9.59998H4.47961C3.98681 9.59998 3.88121 9.59518 3.81241 9.57758C3.66868 9.54321 3.53728 9.4697 3.43279 9.3652C3.32829 9.2607 3.25478 9.1293 3.22041 8.98558C3.20601 8.91998 3.19961 8.81438 3.19961 8.31998V4.47998C3.19961 3.98718 3.20441 3.88158 3.22201 3.81278C3.25638 3.66905 3.32989 3.53765 3.43439 3.43315C3.53888 3.32866 3.67028 3.25515 3.81401 3.22078M15.6796 1.59998H15.5996C15.2332 1.59998 14.918 1.59998 14.6396 1.66558C14.2086 1.76856 13.8146 1.98885 13.5011 2.30204C13.1876 2.61523 12.967 3.00909 12.8636 3.43998C12.7996 3.71838 12.7996 4.03198 12.7996 4.39998V8.39998C12.7996 8.76638 12.7996 9.08158 12.8652 9.35998C12.9682 9.79096 13.1885 10.185 13.5017 10.4985C13.8149 10.812 14.2087 11.0326 14.6396 11.136C14.918 11.2 15.2316 11.2 15.5996 11.2H19.5996C19.966 11.2 20.2812 11.2 20.5596 11.1344C20.9906 11.0314 21.3847 10.8111 21.6981 10.4979C22.0116 10.1847 22.2322 9.79086 22.3356 9.35998C22.3996 9.08158 22.3996 8.76798 22.3996 8.39998V4.39998C22.3996 4.03358 22.3996 3.71838 22.334 3.43998C22.231 3.00899 22.0107 2.61494 21.6975 2.30146C21.3844 1.98799 20.9905 1.76735 20.5596 1.66398C20.2812 1.59998 19.9676 1.59998 19.5996 1.59998H15.6796ZM15.0124 3.22238C15.0812 3.20638 15.1884 3.19998 15.6796 3.19998H19.5196C20.0124 3.19998 20.118 3.20478 20.1868 3.22238C20.3305 3.25675 20.4619 3.33026 20.5664 3.43475C20.6709 3.53925 20.7444 3.67065 20.7788 3.81438C20.7948 3.88158 20.7996 3.98718 20.7996 4.47998V8.31998C20.7996 8.81278 20.7932 8.91838 20.7772 8.98718C20.7428 9.1309 20.6693 9.2623 20.5648 9.3668C20.4603 9.47129 20.3289 9.54481 20.1852 9.57918C20.118 9.59518 20.0124 9.59998 19.5196 9.59998H15.6796C15.1868 9.59998 15.0812 9.59518 15.0124 9.57758C14.8687 9.54321 14.7373 9.4697 14.6328 9.3652C14.5283 9.2607 14.4548 9.1293 14.4204 8.98558C14.406 8.91998 14.3996 8.81438 14.3996 8.31998V4.47998C14.3996 3.98718 14.4044 3.88158 14.422 3.81278C14.4564 3.66905 14.5299 3.53765 14.6344 3.43315C14.7389 3.32866 14.8703 3.25515 15.014 3.22078M4.39961 12.8H8.39961C8.76601 12.8 9.08121 12.8 9.35961 12.8656C9.79059 12.9686 10.1846 13.1889 10.4981 13.502C10.8116 13.8152 11.0322 14.2091 11.1356 14.64C11.1996 14.9184 11.1996 15.232 11.1996 15.6V19.6C11.1996 19.9664 11.1996 20.2816 11.134 20.56C11.031 20.991 10.8107 21.385 10.4975 21.6985C10.1844 22.012 9.7905 22.2326 9.35961 22.336C9.08121 22.4 8.76761 22.4 8.39961 22.4H4.39961C4.03321 22.4 3.71801 22.4 3.43961 22.3344C3.00863 22.2314 2.61457 22.0111 2.3011 21.6979C1.98763 21.3847 1.76698 20.9909 1.66361 20.56C1.59961 20.2816 1.59961 19.968 1.59961 19.6V15.6C1.59961 15.2336 1.59961 14.9184 1.66521 14.64C1.76819 14.209 1.98848 13.8149 2.30167 13.5015C2.61486 13.188 3.00872 12.9673 3.43961 12.864C3.71801 12.8 4.03161 12.8 4.39961 12.8ZM4.47961 14.4C3.98681 14.4 3.88121 14.4048 3.81241 14.4224C3.66868 14.4567 3.53728 14.5303 3.43279 14.6348C3.32829 14.7392 3.25478 14.8706 3.22041 15.0144C3.20601 15.08 3.19961 15.1856 3.19961 15.68V19.52C3.19961 20.0128 3.20441 20.1184 3.22201 20.1872C3.25638 20.3309 3.32989 20.4623 3.43439 20.5668C3.53888 20.6713 3.67028 20.7448 3.81401 20.7792C3.88121 20.7952 3.98681 20.8 4.47961 20.8H8.31961C8.81241 20.8 8.91801 20.7936 8.98681 20.7776C9.13054 20.7432 9.26194 20.6697 9.36643 20.5652C9.47093 20.4607 9.54444 20.3293 9.57881 20.1856C9.59481 20.1184 9.59961 20.0128 9.59961 19.52V15.68C9.59961 15.1872 9.59481 15.0816 9.57721 15.0128C9.54284 14.869 9.46933 14.7376 9.36483 14.6332C9.26034 14.5287 9.12894 14.4551 8.98521 14.4208C8.91961 14.4064 8.81401 14.4 8.31961 14.4H4.47961ZM15.6796 12.8H15.5996C15.2332 12.8 14.918 12.8 14.6396 12.8656C14.2086 12.9686 13.8146 13.1889 13.5011 13.502C13.1876 13.8152 12.967 14.2091 12.8636 14.64C12.7996 14.9184 12.7996 15.232 12.7996 15.6V19.6C12.7996 19.9664 12.7996 20.2816 12.8652 20.56C12.9682 20.991 13.1885 21.385 13.5017 21.6985C13.8149 22.012 14.2087 22.2326 14.6396 22.336C14.918 22.4016 15.2332 22.4016 15.5996 22.4016H19.5996C19.966 22.4016 20.2812 22.4016 20.5596 22.336C20.9903 22.2327 21.384 22.0123 21.6972 21.6992C22.0104 21.386 22.2308 20.9923 22.334 20.5616C22.3996 20.2832 22.3996 19.968 22.3996 19.6016V15.6016C22.3996 15.2352 22.3996 14.92 22.334 14.6416C22.2313 14.2103 22.0111 13.8159 21.6979 13.5021C21.3847 13.1884 20.9907 12.9675 20.5596 12.864C20.2812 12.8 19.9676 12.8 19.5996 12.8H15.6796ZM15.0124 14.4224C15.0812 14.4064 15.1884 14.4 15.6796 14.4H19.5196C20.0124 14.4 20.118 14.4048 20.1868 14.4224C20.3305 14.4567 20.4619 14.5303 20.5664 14.6348C20.6709 14.7392 20.7444 14.8706 20.7788 15.0144C20.7948 15.0816 20.7996 15.1872 20.7996 15.68V19.52C20.7996 20.0128 20.7932 20.1184 20.7772 20.1872C20.7428 20.3309 20.6693 20.4623 20.5648 20.5668C20.4603 20.6713 20.3289 20.7448 20.1852 20.7792C20.118 20.7952 20.0124 20.8 19.5196 20.8H15.6796C15.1868 20.8 15.0812 20.7936 15.0124 20.7776C14.8687 20.7432 14.7373 20.6697 14.6328 20.5652C14.5283 20.4607 14.4548 20.3293 14.4204 20.1856C14.406 20.12 14.3996 20.0144 14.3996 19.52V15.68C14.3996 15.1872 14.4044 15.0816 14.422 15.0128C14.4564 14.869 14.5299 14.7376 14.6344 14.6332C14.7389 14.5287 14.8703 14.4551 15.014 14.4208" fill="current"/>
</svg>
