<svg width="24" height="24" viewBox="0 0 24 24" fill="none" xmlns="http://www.w3.org/2000/svg">
<path d="M5.8 8.4V6H22.6V8.4H5.8ZM5.8 13.2V10.8H22.6V13.2H5.8ZM5.8 18V15.6H22.6V18H5.8ZM2.2 8.4C1.86 8.4 1.5752 8.2848 1.3456 8.0544C1.116 7.824 1.0008 7.5392 1 7.2C0.999204 6.8608 1.1144 6.576 1.3456 6.3456C1.5768 6.1152 1.8616 6 2.2 6C2.5384 6 2.8236 6.1152 3.0556 6.3456C3.2876 6.576 3.4024 6.8608 3.4 7.2C3.3976 7.5392 3.2824 7.8244 3.0544 8.0556C2.8264 8.2868 2.5416 8.4016 2.2 8.4ZM2.2 13.2C1.86 13.2 1.5752 13.0848 1.3456 12.8544C1.116 12.624 1.0008 12.3392 1 12C0.999204 11.6608 1.1144 11.376 1.3456 11.1456C1.5768 10.9152 1.8616 10.8 2.2 10.8C2.5384 10.8 2.8236 10.9152 3.0556 11.1456C3.2876 11.376 3.4024 11.6608 3.4 12C3.3976 12.3392 3.2824 12.6244 3.0544 12.8556C2.8264 13.0868 2.5416 13.2016 2.2 13.2ZM2.2 18C1.86 18 1.5752 17.8848 1.3456 17.6544C1.116 17.424 1.0008 17.1392 1 16.8C0.999204 16.4608 1.1144 16.176 1.3456 15.9456C1.5768 15.7152 1.8616 15.6 2.2 15.6C2.5384 15.6 2.8236 15.7152 3.0556 15.9456C3.2876 16.176 3.4024 16.4608 3.4 16.8C3.3976 17.1392 3.2824 17.4244 3.0544 17.6556C2.8264 17.8868 2.5416 18.0016 2.2 18Z" fill="current"/>
</svg>
