<svg width="29" height="28" viewBox="0 0 29 28" fill="none" xmlns="http://www.w3.org/2000/svg">
<path d="M4.41797 24.5C3.93186 24.5 3.51886 24.3301 3.17897 23.9902C2.83908 23.6503 2.66875 23.2369 2.66797 22.75V14.4084C2.66797 14.2722 2.67769 14.1361 2.69714 14C2.71658 13.8639 2.74575 13.7375 2.78464 13.6209L5.11797 7.00002C5.23464 6.65002 5.44386 6.36808 5.74564 6.15419C6.04741 5.9403 6.38264 5.83335 6.7513 5.83335H9.66797C9.99852 5.83335 10.2754 5.94535 10.4986 6.16935C10.7219 6.39335 10.8339 6.67024 10.8346 7.00002C10.8354 7.3298 10.7234 7.60708 10.4986 7.83185C10.2739 8.05663 9.99697 8.16824 9.66797 8.16669H7.15964L5.93464 11.6667H12.4096C12.7207 11.6667 13.0175 11.725 13.2998 11.8417C13.5821 11.9584 13.8299 12.1236 14.043 12.3375L17.2805 15.575C17.086 15.7306 16.9355 15.925 16.829 16.1584C16.7224 16.3917 16.6687 16.6445 16.668 16.9167C16.668 17.4028 16.8383 17.8162 17.179 18.1569C17.5196 18.4975 17.9326 18.6675 18.418 18.6667C18.8069 18.6667 19.1569 18.55 19.468 18.3167C19.7791 18.0834 19.9832 17.782 20.0805 17.4125C20.2944 17.4514 20.5032 17.4755 20.707 17.4849C20.9107 17.4942 21.12 17.4895 21.3346 17.4709C21.4707 17.4514 21.5971 17.432 21.7138 17.4125C21.8305 17.3931 21.9569 17.3639 22.093 17.325C22.4819 17.2084 22.8416 17.2375 23.1721 17.4125C23.5027 17.5875 23.668 17.8597 23.668 18.2292V22.75C23.668 23.2361 23.498 23.6495 23.1581 23.9902C22.8182 24.3309 22.4049 24.5008 21.918 24.5C21.4311 24.4992 21.0181 24.3293 20.679 23.9902C20.3399 23.6511 20.1695 23.2377 20.168 22.75V22.1667H6.16797V22.75C6.16797 23.2361 5.99802 23.6495 5.65814 23.9902C5.31825 24.3309 4.90486 24.5008 4.41797 24.5ZM7.91797 18.6667C8.40408 18.6667 8.81747 18.4967 9.15814 18.1569C9.4988 17.817 9.66875 17.4036 9.66797 16.9167C9.66719 16.4298 9.49725 16.0168 9.15814 15.6777C8.81902 15.3386 8.40564 15.1682 7.91797 15.1667C7.4303 15.1651 7.0173 15.3355 6.67897 15.6777C6.34064 16.0199 6.1703 16.4329 6.16797 16.9167C6.16564 17.4005 6.33597 17.8139 6.67897 18.1569C7.02197 18.4999 7.43497 18.6698 7.91797 18.6667ZM17.8346 7.00002C18.1652 7.00002 18.4425 6.88802 18.6665 6.66402C18.8905 6.44002 19.0021 6.16313 19.0013 5.83335C19.0005 5.50358 18.8885 5.22669 18.6653 5.00269C18.4421 4.77869 18.1652 4.66669 17.8346 4.66669C17.5041 4.66669 17.2272 4.77869 17.004 5.00269C16.7807 5.22669 16.6687 5.50358 16.668 5.83335C16.6672 6.16313 16.7792 6.44041 17.004 6.66519C17.2287 6.88996 17.5056 7.00158 17.8346 7.00002ZM19.643 14.6417L13.693 8.69169C13.5374 8.53613 13.411 8.34635 13.3138 8.12235C13.2166 7.89835 13.168 7.67046 13.168 7.43869V2.91669C13.168 2.43058 13.3383 2.01758 13.679 1.67769C14.0196 1.3378 14.4326 1.16746 14.918 1.16669H19.4388C19.6721 1.16669 19.9008 1.2153 20.1248 1.31252C20.3488 1.40974 20.5382 1.53613 20.693 1.69169L26.643 7.64169C26.9735 7.97224 27.1388 8.38563 27.1388 8.88185C27.1388 9.37808 26.9735 9.79108 26.643 10.1209L22.1221 14.6417C21.7916 14.9722 21.3786 15.1375 20.8831 15.1375C20.3877 15.1375 19.9743 14.9722 19.643 14.6417Z" fill="#5E189D"/>
</svg>
