<svg width="24" height="24" viewBox="0 0 24 24" fill="none" xmlns="http://www.w3.org/2000/svg">
<path d="M6.5 16C6.91667 16 7.271 15.8543 7.563 15.563C7.855 15.2717 8.00067 14.9173 8 14.5C7.99933 14.0827 7.85367 13.7287 7.563 13.438C7.27233 13.1473 6.918 13.0013 6.5 13C6.082 12.9987 5.728 13.1447 5.438 13.438C5.148 13.7313 5.002 14.0853 5 14.5C4.998 14.9147 5.144 15.269 5.438 15.563C5.732 15.857 6.086 16.0027 6.5 16ZM15.5 16C15.8333 16 16.1333 15.9 16.4 15.7C16.6667 15.5 16.8417 15.2417 16.925 14.925C16.5917 14.8583 16.275 14.7457 15.975 14.587C15.675 14.4283 15.4 14.2243 15.15 13.975L14.525 13.35C14.3583 13.4833 14.2293 13.65 14.138 13.85C14.0467 14.05 14.0007 14.2667 14 14.5C14 14.9167 14.146 15.271 14.438 15.563C14.73 15.855 15.084 16.0007 15.5 16ZM5 19V20C5 20.2833 4.904 20.521 4.712 20.713C4.52 20.905 4.28267 21.0007 4 21H3C2.71667 21 2.47933 20.904 2.288 20.712C2.09667 20.52 2.00067 20.2827 2 20V12L4.1 6C4.2 5.7 4.37933 5.45833 4.638 5.275C4.89667 5.09167 5.184 5 5.5 5H9V6.375C9 6.475 9.00433 6.57933 9.013 6.688C9.02167 6.79667 9.034 6.90067 9.05 7H5.85L4.8 10H11.175L13.175 12H4V17H18V14.975C18.3667 14.9417 18.721 14.85 19.063 14.7C19.405 14.55 19.7173 14.3417 20 14.075V20C20 20.2833 19.904 20.521 19.712 20.713C19.52 20.905 19.2827 21.0007 19 21H18C17.7167 21 17.4793 20.904 17.288 20.712C17.0967 20.52 17.0007 20.2827 17 20V19H5ZM15 6C15.2833 6 15.521 5.904 15.713 5.712C15.905 5.52 16.0007 5.28267 16 5C15.9993 4.71733 15.9033 4.48 15.712 4.288C15.5207 4.096 15.2833 4 15 4C14.7167 4 14.4793 4.096 14.288 4.288C14.0967 4.48 14.0007 4.71733 14 5C13.9993 5.28267 14.0953 5.52033 14.288 5.713C14.4807 5.90567 14.718 6.00133 15 6ZM16.55 12.55L11.45 7.45C11.3167 7.31667 11.2083 7.154 11.125 6.962C11.0417 6.77 11 6.57467 11 6.376V2.5C11 2.08333 11.146 1.72933 11.438 1.438C11.73 1.14667 12.084 1.00067 12.5 1H16.375C16.575 1 16.771 1.04167 16.963 1.125C17.155 1.20833 17.3173 1.31667 17.45 1.45L22.55 6.55C22.8333 6.83333 22.975 7.18767 22.975 7.613C22.975 8.03833 22.8333 8.39233 22.55 8.675L18.675 12.55C18.3917 12.8333 18.0377 12.975 17.613 12.975C17.1883 12.975 16.834 12.8333 16.55 12.55ZM17.625 10.8L20.8 7.625L16.175 3H13V6.175L17.625 10.8Z" fill="#5E189D"/>
</svg>
