<svg width="29" height="28" viewBox="0 0 29 28" fill="none" xmlns="http://www.w3.org/2000/svg">
<path fill-rule="evenodd" clip-rule="evenodd" d="M14.5228 3.5C11.8878 3.5 9.48743 4.37033 8.06701 5.08142C7.93868 5.14558 7.8189 5.20819 7.70768 5.26925C7.48718 5.38942 7.29934 5.50142 7.15001 5.6L8.76584 7.97883L9.52651 8.28158C12.4992 9.78133 16.4857 9.78133 19.4589 8.28158L20.3223 7.83358L21.85 5.6C21.5332 5.39415 21.2042 5.20772 20.8648 5.04175C19.4513 4.33825 17.1081 3.5 14.5233 3.5M10.7655 6.19267C10.1935 6.08501 9.62836 5.9432 9.07326 5.768C10.4038 5.17708 12.3866 4.55 14.5233 4.55C16.0033 4.55 17.4027 4.851 18.56 5.2325C17.2038 5.42325 15.7565 5.747 14.3775 6.14541C13.2925 6.45925 12.0243 6.42541 10.7655 6.19267ZM20.0755 9.14666L19.932 9.219C16.6618 10.8687 12.3242 10.8687 9.05401 9.219L8.91809 9.15016C4.00468 14.5407 0.253845 24.4982 14.5228 24.4982C28.7917 24.4982 24.9498 14.3558 20.0755 9.14666ZM13.9167 14C13.6073 14 13.3105 14.1229 13.0917 14.3417C12.8729 14.5605 12.75 14.8572 12.75 15.1667C12.75 15.4761 12.8729 15.7728 13.0917 15.9916C13.3105 16.2104 13.6073 16.3333 13.9167 16.3333V14ZM15.0833 12.8333V12.25H13.9167V12.8333C13.2978 12.8333 12.7043 13.0792 12.2668 13.5167C11.8292 13.9543 11.5833 14.5478 11.5833 15.1667C11.5833 15.7855 11.8292 16.379 12.2668 16.8166C12.7043 17.2542 13.2978 17.5 13.9167 17.5V19.8333C13.4092 19.8333 12.9769 19.5096 12.8159 19.0557C12.792 18.9815 12.7535 18.9128 12.7026 18.8537C12.6517 18.7946 12.5895 18.7463 12.5196 18.7117C12.4497 18.6771 12.3736 18.6568 12.2957 18.6521C12.2178 18.6474 12.1398 18.6584 12.0663 18.6844C11.9927 18.7104 11.9252 18.7508 11.8675 18.8034C11.8099 18.8559 11.7634 18.9195 11.7308 18.9904C11.6981 19.0612 11.6801 19.1379 11.6776 19.2158C11.6751 19.2938 11.6883 19.3715 11.7163 19.4442C11.8772 19.8993 12.1751 20.2932 12.5692 20.5719C12.9633 20.8505 13.4341 21.0001 13.9167 21V21.5833H15.0833V21C15.7022 21 16.2957 20.7542 16.7333 20.3166C17.1708 19.879 17.4167 19.2855 17.4167 18.6667C17.4167 18.0478 17.1708 17.4543 16.7333 17.0167C16.2957 16.5792 15.7022 16.3333 15.0833 16.3333V14C15.5908 14 16.0231 14.3237 16.1841 14.7776C16.208 14.8518 16.2465 14.9205 16.2974 14.9796C16.3483 15.0387 16.4106 15.087 16.4804 15.1216C16.5503 15.1563 16.6265 15.1765 16.7043 15.1812C16.7822 15.1859 16.8602 15.1749 16.9337 15.1489C17.0073 15.123 17.0748 15.0825 17.1325 15.0299C17.1901 14.9774 17.2366 14.9138 17.2692 14.8429C17.3019 14.7721 17.32 14.6954 17.3224 14.6175C17.3249 14.5395 17.3117 14.4619 17.2837 14.3891C17.1228 13.934 16.8249 13.5401 16.4308 13.2615C16.0367 12.9828 15.566 12.8332 15.0833 12.8333ZM15.0833 17.5V19.8333C15.3928 19.8333 15.6895 19.7104 15.9083 19.4916C16.1271 19.2728 16.25 18.9761 16.25 18.6667C16.25 18.3572 16.1271 18.0605 15.9083 17.8417C15.6895 17.6229 15.3928 17.5 15.0833 17.5Z" fill="#5E189D"/>
</svg>
