<svg width="24" height="24" viewBox="0 0 24 24" fill="none" xmlns="http://www.w3.org/2000/svg">
<path d="M11.8802 14.5088H11.9327C13.0577 14.5388 13.9577 15.4538 13.9577 16.5788C13.9577 17.5388 13.3052 18.3413 12.4202 18.5813V19.4213C12.4202 19.7213 12.1802 19.9613 11.8802 19.9613C11.5802 19.9613 11.3402 19.7213 11.3402 19.4213V18.5813C10.8996 18.4626 10.5103 18.2023 10.2324 17.8403C9.95452 17.4784 9.80352 17.0351 9.80273 16.5788C9.80273 16.2788 10.0427 16.0388 10.3427 16.0388C10.6427 16.0388 10.8827 16.2788 10.8827 16.5788C10.8827 17.1338 11.3252 17.5763 11.8727 17.5763C12.4202 17.5763 12.8702 17.1263 12.8702 16.5788C12.8702 16.0313 12.4202 15.5813 11.8727 15.5813H11.8202C11.2807 15.5666 10.7681 15.3422 10.3914 14.9557C10.0147 14.5692 9.80351 14.051 9.80273 13.5113C9.80273 12.5513 10.4552 11.7488 11.3402 11.5088V10.6688C11.3402 10.3688 11.5802 10.1288 11.8802 10.1288C12.1802 10.1288 12.4202 10.3688 12.4202 10.6688V11.5088C13.3052 11.7488 13.9577 12.5513 13.9577 13.5113C13.9577 13.8113 13.7177 14.0513 13.4177 14.0513C13.1177 14.0513 12.8777 13.8113 12.8777 13.5113C12.8777 12.9638 12.4277 12.5138 11.8802 12.5138C11.3327 12.5138 10.8827 12.9638 10.8827 13.5113C10.8827 14.0588 11.3327 14.5088 11.8802 14.5088Z" fill="#5E189D"/>
<path d="M7.899 3.825L9.9885 6.27L9.76275 6.522C5.46225 7.4865 2.25 11.3273 2.25 15.9188C2.25 19.9552 5.526 23.2313 9.5625 23.2313H14.19C18.2265 23.2313 21.5025 19.956 21.5025 15.9195C21.51 11.3273 18.2978 7.4865 13.9973 6.522C14.0149 6.36351 13.9863 6.2033 13.9148 6.06075L15.6923 4.026L15.807 3.849C15.941 3.55675 15.9753 3.22857 15.9046 2.91493C15.8338 2.6013 15.6621 2.31958 15.4156 2.11311C15.1692 1.90663 14.8617 1.78683 14.5406 1.77213C14.2194 1.75743 13.9023 1.84865 13.638 2.03175L13.0058 1.28175C12.8639 1.12304 12.6902 0.99599 12.496 0.908888C12.3018 0.821786 12.0914 0.776586 11.8786 0.776232C11.6657 0.775878 11.4552 0.820379 11.2607 0.906835C11.0662 0.99329 10.8921 1.11976 10.7498 1.278L10.0875 2.0175C9.82391 1.83059 9.50608 1.73574 9.18317 1.74761C8.86025 1.75949 8.55025 1.87744 8.3011 2.08321C8.05196 2.28898 7.87755 2.57111 7.80487 2.88596C7.73218 3.20081 7.76527 3.53084 7.899 3.825ZM10.7483 4.86375L9.47625 3.39375C9.77182 3.53589 10.1061 3.57618 10.427 3.50834C10.7479 3.4405 11.0373 3.26835 11.25 3.01875L11.85 2.24025L12.516 3.02925C12.7237 3.27074 13.0038 3.43866 13.3146 3.50799C13.6255 3.57732 13.9504 3.54436 14.241 3.414L12.975 4.86375H10.7483ZM3.75 15.9188C3.75 11.4278 7.389 7.78875 11.88 7.78875C16.371 7.78875 20.01 11.4278 20.0025 15.9172V15.9188C20.0019 17.4601 19.3893 18.9382 18.2994 20.0281C17.2095 21.1181 15.7314 21.7307 14.19 21.7313H9.5625C8.02111 21.7307 6.54303 21.1181 5.4531 20.0281C4.36317 18.9382 3.7506 17.4601 3.75 15.9188Z" fill="#5E189D"/>
</svg>
