<svg width="24" height="24" viewBox="0 0 24 24" fill="none" xmlns="http://www.w3.org/2000/svg">
<path d="M17 22C15.6167 22 14.4377 21.5123 13.463 20.537C12.4883 19.5617 12.0007 18.3827 12 17C11.9993 15.6173 12.487 14.4383 13.463 13.463C14.439 12.4877 15.618 12 17 12C18.382 12 19.5613 12.4877 20.538 13.463C21.5147 14.4383 22.002 15.6173 22 17C21.998 18.3827 21.5103 19.562 20.537 20.538C19.5637 21.514 18.3847 22.0013 17 22ZM18.675 19.375L19.375 18.675L17.5 16.8V14H16.5V17.2L18.675 19.375ZM5 21C4.45 21 3.97933 20.8043 3.588 20.413C3.19667 20.0217 3.00067 19.5507 3 19V5C3 4.45 3.196 3.97933 3.588 3.588C3.98 3.19667 4.45067 3.00067 5 3H9.175C9.35833 2.41667 9.71667 1.93767 10.25 1.563C10.7833 1.18833 11.3667 1.00067 12 1C12.6667 1 13.2627 1.18767 13.788 1.563C14.3133 1.93833 14.6673 2.41733 14.85 3H19C19.55 3 20.021 3.196 20.413 3.588C20.805 3.98 21.0007 4.45067 21 5V11.25C20.7 11.0333 20.3833 10.85 20.05 10.7C19.7167 10.55 19.3667 10.4167 19 10.3V5H17V8H7V5H5V19H10.3C10.4167 19.3667 10.55 19.7167 10.7 20.05C10.85 20.3833 11.0333 20.7 11.25 21H5ZM12 5C12.2833 5 12.521 4.904 12.713 4.712C12.905 4.52 13.0007 4.28267 13 4C12.9993 3.71733 12.9033 3.48 12.712 3.288C12.5207 3.096 12.2833 3 12 3C11.7167 3 11.4793 3.096 11.288 3.288C11.0967 3.48 11.0007 3.71733 11 4C10.9993 4.28267 11.0953 4.52033 11.288 4.713C11.4807 4.90567 11.718 5.00133 12 5Z" fill="#5E189D"/>
</svg>
