<svg width="28" height="28" viewBox="0 0 28 28" fill="none" xmlns="http://www.w3.org/2000/svg">
<path d="M14 24.5C11.55 24.5 9.38195 23.7564 7.49583 22.2693C5.60972 20.7822 4.38472 18.8813 3.82083 16.5667C3.74306 16.275 3.80139 16.0078 3.99583 15.7652C4.19028 15.5225 4.45278 15.3813 4.78333 15.3417C5.09444 15.3028 5.37639 15.3611 5.62917 15.5167C5.88194 15.6722 6.05694 15.9056 6.15417 16.2167C6.62083 17.9667 7.58333 19.3958 9.04167 20.5042C10.5 21.6125 12.1528 22.1667 14 22.1667C16.275 22.1667 18.2051 21.3745 19.7902 19.7902C21.3753 18.2058 22.1674 16.2758 22.1667 14C22.1659 11.7242 21.3737 9.79456 19.7902 8.211C18.2066 6.62744 16.2766 5.83489 14 5.83333C12.6583 5.83333 11.4042 6.14444 10.2375 6.76667C9.07083 7.38889 8.08889 8.24444 7.29167 9.33333H9.33333C9.66389 9.33333 9.94117 9.44533 10.1652 9.66933C10.3892 9.89333 10.5008 10.1702 10.5 10.5C10.4992 10.8298 10.3872 11.1071 10.164 11.3318C9.94078 11.5566 9.66389 11.6682 9.33333 11.6667H4.66667C4.33611 11.6667 4.05922 11.5547 3.836 11.3307C3.61278 11.1067 3.50078 10.8298 3.5 10.5V5.83333C3.5 5.50278 3.612 5.22589 3.836 5.00267C4.06 4.77944 4.33689 4.66744 4.66667 4.66667C4.99644 4.66589 5.27372 4.77789 5.4985 5.00267C5.72328 5.22744 5.83489 5.50433 5.83333 5.83333V7.40833C6.825 6.16389 8.03561 5.20139 9.46517 4.52083C10.8947 3.84028 12.4063 3.5 14 3.5C15.4583 3.5 16.8245 3.77728 18.0985 4.33183C19.3725 4.88639 20.4808 5.63461 21.4235 6.5765C22.3662 7.51839 23.1148 8.62672 23.6693 9.9015C24.2239 11.1763 24.5008 12.5424 24.5 14C24.4992 15.4576 24.2223 16.8237 23.6693 18.0985C23.1163 19.3733 22.3677 20.4816 21.4235 21.4235C20.4793 22.3654 19.3709 23.114 18.0985 23.6693C16.8261 24.2247 15.4599 24.5016 14 24.5ZM15.1667 13.5333L18.0833 16.45C18.2972 16.6639 18.4042 16.9361 18.4042 17.2667C18.4042 17.5972 18.2972 17.8694 18.0833 18.0833C17.8694 18.2972 17.5972 18.4042 17.2667 18.4042C16.9361 18.4042 16.6639 18.2972 16.45 18.0833L13.1833 14.8167C13.0667 14.7 12.9792 14.5689 12.9208 14.4235C12.8625 14.2781 12.8333 14.1272 12.8333 13.9708V9.33333C12.8333 9.00278 12.9453 8.72589 13.1693 8.50267C13.3933 8.27945 13.6702 8.16744 14 8.16667C14.3298 8.16589 14.6071 8.27789 14.8318 8.50267C15.0566 8.72745 15.1682 9.00433 15.1667 9.33333V13.5333Z" fill="#5E189D"/>
</svg>
