<svg width="28" height="28" viewBox="0 0 28 28" fill="none" xmlns="http://www.w3.org/2000/svg">
<path d="M16.3334 5.8335C16.6354 5.83349 16.9256 5.95059 17.143 6.16016L17.2445 6.271L21.56 11.6668H22.1667C23.0595 11.6668 23.9185 12.0079 24.568 12.6203C25.2175 13.2328 25.6085 14.0703 25.6609 14.9615L25.6667 15.1668V19.8335C25.6667 20.1429 25.5438 20.4397 25.325 20.6584C25.1062 20.8772 24.8095 21.0002 24.5 21.0002H23.1339C22.8924 21.6825 22.4453 22.2732 21.8542 22.6909C21.2632 23.1087 20.5572 23.333 19.8334 23.333C19.1096 23.333 18.4036 23.1087 17.8125 22.6909C17.2214 22.2732 16.7744 21.6825 16.5329 21.0002H11.4672C11.2257 21.6825 10.7786 22.2732 10.1876 22.6909C9.59652 23.1087 8.89051 23.333 8.16671 23.333C7.44291 23.333 6.73689 23.1087 6.14584 22.6909C5.55478 22.2732 5.10773 21.6825 4.86621 21.0002H3.50004C3.19062 21.0002 2.89388 20.8772 2.67508 20.6584C2.45629 20.4397 2.33337 20.1429 2.33337 19.8335V12.8335L2.34154 12.697L2.35087 12.6317L2.37071 12.5407L2.38471 12.4987L2.40104 12.4403L4.75071 6.56733C4.8372 6.35084 4.98656 6.16523 5.17954 6.03443C5.37251 5.90363 5.60025 5.83364 5.83337 5.8335H16.3334ZM8.16671 18.6668C7.85729 18.6668 7.56054 18.7897 7.34175 19.0085C7.12296 19.2273 7.00004 19.5241 7.00004 19.8335C7.00004 20.1429 7.12296 20.4397 7.34175 20.6584C7.56054 20.8772 7.85729 21.0002 8.16671 21.0002C8.47613 21.0002 8.77287 20.8772 8.99166 20.6584C9.21046 20.4397 9.33337 20.1429 9.33337 19.8335C9.33337 19.5241 9.21046 19.2273 8.99166 19.0085C8.77287 18.7897 8.47613 18.6668 8.16671 18.6668ZM19.8334 18.6668C19.524 18.6668 19.2272 18.7897 19.0084 19.0085C18.7896 19.2273 18.6667 19.5241 18.6667 19.8335C18.6667 20.1429 18.7896 20.4397 19.0084 20.6584C19.2272 20.8772 19.524 21.0002 19.8334 21.0002C20.1428 21.0002 20.4395 20.8772 20.6583 20.6584C20.8771 20.4397 21 20.1429 21 19.8335C21 19.5241 20.8771 19.2273 20.6583 19.0085C20.4395 18.7897 20.1428 18.6668 19.8334 18.6668ZM12.8334 8.16683H6.62204L5.22204 11.6668H12.8334V8.16683ZM15.7734 8.16683H15.1667V11.6668H18.5734L15.7734 8.16683Z" fill="#5E189D"/>
</svg>
