<svg width="117" height="49" viewBox="0 0 117 49" fill="none" xmlns="http://www.w3.org/2000/svg">
<path d="M36.3255 23.9578C35.7443 23.9578 35.2793 23.8052 34.9306 23.5001C34.5964 23.1804 34.4293 22.7809 34.4293 22.3014C34.4293 21.6475 34.6836 21.0881 35.1921 20.6231C35.7007 20.1581 36.3182 19.9257 37.0447 19.9257C37.6259 19.9257 38.0837 20.0855 38.4178 20.4052C38.752 20.7103 38.9191 21.1099 38.9191 21.6039C38.9191 22.2432 38.6649 22.7954 38.1563 23.2604C37.6477 23.7253 37.0375 23.9578 36.3255 23.9578ZM37.9383 25.2219L35.8024 37.3838H32.0754L34.2113 25.2219H37.9383ZM45.1073 22.0834L46.8728 33.635L52.6921 22.0834H56.6589L48.5292 37.3838H43.865L41.1406 22.0834H45.1073ZM60.8538 23.9578C60.2726 23.9578 59.8077 23.8052 59.4589 23.5001C59.1247 23.1804 58.9576 22.7809 58.9576 22.3014C58.9576 21.6475 59.2119 21.0881 59.7205 20.6231C60.229 20.1581 60.8466 19.9257 61.5731 19.9257C62.1543 19.9257 62.612 20.0855 62.9462 20.4052C63.2804 20.7103 63.4475 21.1099 63.4475 21.6039C63.4475 22.2432 63.1932 22.7954 62.6847 23.2604C62.1761 23.7253 61.5658 23.9578 60.8538 23.9578ZM62.4667 25.2219L60.3308 37.3838H56.6037L58.7397 25.2219H62.4667ZM73.6896 25.0912C74.9102 25.0912 75.8692 25.4326 76.5666 26.1156C77.2641 26.7985 77.6128 27.7502 77.6128 28.9708C77.6128 29.3776 77.5692 29.8135 77.482 30.2785L76.2179 37.3838H72.5127L73.6896 30.7798C73.7332 30.5328 73.755 30.3148 73.755 30.1259C73.755 29.5156 73.5807 29.0434 73.2319 28.7092C72.8977 28.375 72.4255 28.2079 71.8152 28.2079C71.0887 28.2079 70.4784 28.4331 69.9844 28.8836C69.4904 29.334 69.1707 29.9661 69.0254 30.7798V30.6708L67.8485 37.3838H64.1215L66.2574 25.2219H69.9844L69.7011 26.8566C70.1806 26.319 70.7618 25.8903 71.4447 25.5707C72.1422 25.251 72.8905 25.0912 73.6896 25.0912Z" fill="white"/>
<path d="M20.1948 10.2454C5.33432 11.7314 4.38489 20.1123 1 24.7768C17.3466 15.489 93.259 12.7646 113.816 18.2134C112.206 13.7553 110.018 12.0628 107.748 11.65C110.844 9.54479 111.835 9.04944 113.816 5.82967L87.6863 10.2454C51.1542 -7.21582 33.3629 4.34245 20.1948 10.2454Z" fill="white" stroke="white" stroke-width="0.247675" stroke-linecap="round"/>
<path d="M22.424 12.5982C29.7304 7.10806 52.6651 -0.949616 75.5503 7.76855C71.7114 11.1122 38.3743 15.2731 22.424 12.5982Z" fill="#5E189D"/>
<path d="M85.3333 8.88311L80.999 7.14938C76.1445 12.301 64.6524 15.1175 61.3088 16.9751C76.0455 18.0896 82.6088 10.3279 85.3333 8.88311Z" fill="#5E189D" stroke="#5E189D" stroke-width="0.247675"/>
<path d="M8.30634 26.7582C11.2518 24.065 19.2887 20.1981 27.8727 26.2759C19.6674 23.1888 11.4096 25.3111 8.30634 26.7582Z" fill="white" stroke="white" stroke-width="0.247675"/>
<path d="M82.609 22.3C85.5545 19.6069 93.5914 15.7399 102.175 21.8177C93.9701 18.7306 85.7123 20.853 82.609 22.3Z" fill="white" stroke="white" stroke-width="0.247675"/>
<path d="M17.6242 29.204C15.102 48.2832 81.4645 59.8966 93.077 25.8859" stroke="white" stroke-width="1.65906"/>
</svg>
