<svg width="195" height="81" viewBox="0 0 195 81" fill="none" xmlns="http://www.w3.org/2000/svg">
<path d="M60.1198 39.2589C59.1489 39.2589 58.3721 39.004 57.7895 38.4942C57.2312 37.9602 56.9521 37.2927 56.9521 36.4916C56.9521 35.3993 57.3769 34.4647 58.2265 33.688C59.076 32.9112 60.1077 32.5228 61.3214 32.5228C62.2924 32.5228 63.057 32.7898 63.6153 33.3239C64.1736 33.8336 64.4528 34.5012 64.4528 35.3265C64.4528 36.3945 64.028 37.3169 63.1784 38.0937C62.3288 38.8705 61.3093 39.2589 60.1198 39.2589ZM62.8143 41.3707L59.246 61.6881H53.0197L56.588 41.3707H62.8143ZM74.7907 36.1275L77.74 55.4254L87.4617 36.1275H94.0885L80.5072 61.6881H72.7152L68.1638 36.1275H74.7907ZM101.097 39.2589C100.126 39.2589 99.3488 39.004 98.7662 38.4942C98.2079 37.9602 97.9288 37.2927 97.9288 36.4916C97.9288 35.3993 98.3536 34.4647 99.2032 33.688C100.053 32.9112 101.084 32.5228 102.298 32.5228C103.269 32.5228 104.034 32.7898 104.592 33.3239C105.15 33.8336 105.429 34.5012 105.429 35.3265C105.429 36.3945 105.005 37.3169 104.155 38.0937C103.305 38.8705 102.286 39.2589 101.097 39.2589ZM103.791 41.3707L100.223 61.6881H93.9964L97.5647 41.3707H103.791ZM122.54 41.1522C124.579 41.1522 126.181 41.7227 127.346 42.8636C128.511 44.0044 129.094 45.5944 129.094 47.6334C129.094 48.3131 129.021 49.0413 128.875 49.8181L126.764 61.6881H120.574L122.54 50.6555C122.613 50.2429 122.649 49.8788 122.649 49.5632C122.649 48.5437 122.358 47.7548 121.775 47.1965C121.217 46.6382 120.428 46.359 119.408 46.359C118.195 46.359 117.175 46.7353 116.35 47.4878C115.525 48.2403 114.991 49.2962 114.748 50.6555V50.4735L112.782 61.6881H106.555L110.124 41.3707H116.35L115.877 44.1015C116.678 43.2034 117.649 42.4873 118.79 41.9533C119.955 41.4193 121.205 41.1522 122.54 41.1522Z" fill="#5E189D"/>
<path d="M33.1721 16.4452C8.34631 18.9278 6.76022 32.9287 1.10547 40.7212C28.4138 25.2051 155.232 20.6537 189.574 29.7565C186.885 22.3088 183.23 19.4814 179.437 18.7918C184.609 15.2748 186.264 14.4473 189.574 9.06837L145.922 16.4452C84.8924 -12.7252 55.1704 6.58385 33.1721 16.4452Z" fill="#5E189D" stroke="#5E189D" stroke-width="0.413763" stroke-linecap="round"/>
<path d="M36.8965 20.3758C49.1025 11.2041 87.4169 -2.25696 125.649 12.3075C119.235 17.8933 63.5428 24.8444 36.8965 20.3758Z" fill="#F8F0FF"/>
<path d="M141.99 14.1694L134.75 11.2731C126.64 19.8793 107.441 24.5845 101.855 27.6877C126.474 29.5496 137.439 16.583 141.99 14.1694Z" fill="#F8F0FF" stroke="#F8F0FF" stroke-width="0.413763"/>
<path d="M13.3125 44.0314C18.2332 39.5322 31.6595 33.0722 45.9997 43.2256C32.2922 38.0683 18.4968 41.6139 13.3125 44.0314Z" fill="#5E189D" stroke="#5E189D" stroke-width="0.413763"/>
<path d="M137.439 36.5835C142.36 32.0843 155.786 25.6243 170.127 35.7777C156.419 30.6204 142.624 34.1661 137.439 36.5835Z" fill="#5E189D" stroke="#5E189D" stroke-width="0.413763"/>
<path d="M28.8787 48.1172C24.6652 79.9906 135.529 99.3918 154.929 42.574" stroke="#5E189D" stroke-width="2.7716"/>
</svg>
