<svg width="24" height="24" viewBox="0 0 24 24" fill="none" xmlns="http://www.w3.org/2000/svg">
<path d="M3.5 21.0001C3.08333 21.0001 2.72933 20.8545 2.438 20.5631C2.14667 20.2718 2.00067 19.9175 2 19.5001V12.3501C2 12.2335 2.00833 12.1168 2.025 12.0001C2.04167 11.8835 2.06667 11.7751 2.1 11.6751L4.1 6.00012C4.2 5.70012 4.37933 5.45846 4.638 5.27512C4.89667 5.09179 5.184 5.00012 5.5 5.00012H8C8.28333 5.00012 8.52067 5.09612 8.712 5.28812C8.90333 5.48012 8.99933 5.71746 9 6.00012C9.00067 6.28279 8.90467 6.52046 8.712 6.71312C8.51933 6.90579 8.282 7.00146 8 7.00012H5.85L4.8 10.0001H10.35C10.6167 10.0001 10.871 10.0501 11.113 10.1501C11.355 10.2501 11.5673 10.3918 11.75 10.5751L14.525 13.3501C14.3583 13.4835 14.2293 13.6501 14.138 13.8501C14.0467 14.0501 14.0007 14.2668 14 14.5001C14 14.9168 14.146 15.2711 14.438 15.5631C14.73 15.8551 15.084 16.0008 15.5 16.0001C15.8333 16.0001 16.1333 15.9001 16.4 15.7001C16.6667 15.5001 16.8417 15.2418 16.925 14.9251C17.1083 14.9585 17.2873 14.9791 17.462 14.9871C17.6367 14.9951 17.816 14.9911 18 14.9751C18.1167 14.9585 18.225 14.9418 18.325 14.9251C18.425 14.9085 18.5333 14.8835 18.65 14.8501C18.9833 14.7501 19.2917 14.7751 19.575 14.9251C19.8583 15.0751 20 15.3085 20 15.6251V19.5001C20 19.9168 19.8543 20.2711 19.563 20.5631C19.2717 20.8551 18.9173 21.0008 18.5 21.0001C18.0827 20.9995 17.7287 20.8538 17.438 20.5631C17.1473 20.2725 17.0013 19.9181 17 19.5001V19.0001H5V19.5001C5 19.9168 4.85433 20.2711 4.563 20.5631C4.27167 20.8551 3.91733 21.0008 3.5 21.0001ZM6.5 16.0001C6.91667 16.0001 7.271 15.8545 7.563 15.5631C7.855 15.2718 8.00067 14.9175 8 14.5001C7.99933 14.0828 7.85367 13.7288 7.563 13.4381C7.27233 13.1475 6.918 13.0015 6.5 13.0001C6.082 12.9988 5.728 13.1448 5.438 13.4381C5.148 13.7315 5.002 14.0855 5 14.5001C4.998 14.9148 5.144 15.2691 5.438 15.5631C5.732 15.8571 6.086 16.0028 6.5 16.0001ZM15 6.00012C15.2833 6.00012 15.521 5.90412 15.713 5.71212C15.905 5.52012 16.0007 5.28279 16 5.00012C15.9993 4.71746 15.9033 4.48012 15.712 4.28812C15.5207 4.09612 15.2833 4.00012 15 4.00012C14.7167 4.00012 14.4793 4.09612 14.288 4.28812C14.0967 4.48012 14.0007 4.71746 14 5.00012C13.9993 5.28279 14.0953 5.52046 14.288 5.71312C14.4807 5.90579 14.718 6.00146 15 6.00012ZM16.55 12.5501L11.45 7.45012C11.3167 7.31679 11.2083 7.15412 11.125 6.96212C11.0417 6.77012 11 6.57479 11 6.37612V2.50012C11 2.08346 11.146 1.72946 11.438 1.43812C11.73 1.14679 12.084 1.00079 12.5 1.00012H16.375C16.575 1.00012 16.771 1.04179 16.963 1.12512C17.155 1.20846 17.3173 1.31679 17.45 1.45012L22.55 6.55012C22.8333 6.83346 22.975 7.18779 22.975 7.61312C22.975 8.03846 22.8333 8.39246 22.55 8.67512L18.675 12.5501C18.3917 12.8335 18.0377 12.9751 17.613 12.9751C17.1883 12.9751 16.834 12.8335 16.55 12.5501Z" fill="#5E189D"/>
</svg>
