<svg width="32" height="32" viewBox="0 0 32 32" fill="none" xmlns="http://www.w3.org/2000/svg">
<rect width="32" height="32" rx="5.33333" fill="#5E189D"/>
<path d="M19.7794 6.96731C20.1507 6.59618 20.6541 6.3877 21.179 6.3877C21.704 6.3877 22.2074 6.59618 22.5786 6.96731L25.0285 9.41712C25.2124 9.60096 25.3583 9.81923 25.4578 10.0595C25.5573 10.2997 25.6086 10.5572 25.6086 10.8172C25.6086 11.0773 25.5573 11.3348 25.4578 11.575C25.3583 11.8152 25.2124 12.0335 25.0285 12.2173L13.2565 23.9893L6.94141 25.0544L8.00745 18.7393L19.7794 6.96731ZM19.5528 9.9932L22.0026 12.443L23.6288 10.8167L21.179 8.36791L19.5528 9.9932ZM20.602 13.8436L18.1531 11.3938L9.85446 19.6925L9.35658 22.6392L12.3033 22.1423L20.602 13.8436Z" fill="white"/>
</svg>
